<?xml version="1.0" encoding="utf-8"?>
<!-- Generator: Adobe Illustrator 20.0.0, SVG Export Plug-In . SVG Version: 6.00 Build 0)  -->
<svg version="1.1" id="Ebene_1" xmlns="http://www.w3.org/2000/svg" xmlns:xlink="http://www.w3.org/1999/xlink" x="0px" y="0px"
	 viewBox="0 0 120 30" style="enable-background:new 0 0 120 30;" xml:space="preserve">
<style type="text/css">
	.st0{fill:#E30427;}
	.st1{fill:#E3003A;}
	.st2{fill:#1D1D1B;}
</style>
<g>
	<g>
		<path class="st0" d="M1.761,24.096c-0.02,0.613-0.447,1.088-0.453,1.798c-0.128,0.029-0.245-0.071-0.303-0.164
			c0.168-1.002,0.367-1.999,0.756-2.779C2.399,23.077,1.731,23.643,1.761,24.096L1.761,24.096z"/>
		<path class="st0" d="M35.183,2.349c-0.095,0.024-0.184,0.022-0.303,0.163c0.025,0.051,0.175,0.054,0.303,0
			c0.021,0.058,0.021,0.089,0.151,0.163c-1.997,0.724-3.92,1.294-5.747,2.125c-0.435,0.28-1.032,0.266-1.361,0.818
			c-0.76,0.134-1.456,0.603-2.269,0.981c-0.336,0.339-0.936,0.454-1.512,0.818c-1.024,0.537-1.878,1.454-3.024,1.962
			c-0.817,0.642-1.664,1.172-2.269,1.962c-0.28,0.159-0.552,0.314-0.756,0.49c-2.437,2.025-5.357,4.736-7.713,7.685
			c-0.764,0.823-1.32,1.78-1.966,2.616c-0.148,0.049-0.023,0.123-0.149,0.209c0.21,0.207,0.202,0.298,0.452,0.118
			c0.085-0.169,0.321-0.002,0.454-0.164c1.176-1.068,2.679-1.615,3.932-2.616c0.492,0.394,0.983-0.273,1.512-0.491l1.966-0.981
			c0.249-0.16,0.361,0.198,0.605,0.327c-0.347,0.611-1.234,0.552-1.379,1.102c-1.8,1.247-3.638,2.335-5.275,3.804l-0.523-0.116
			l-2.728,1.967c-1.659,1.505-3.443,2.291-5.116,3.851c-0.356-0.089-0.178-0.386-0.555-0.47c-0.174-0.736-0.908-1.399-0.605-2.289
			c0.239-0.905,0.611-1.575,1.059-2.453c-0.393-0.445-0.052-1.051,0-1.635c0.701-2.822,1.799-5.542,3.025-8.012
			c0.236-0.533,0.402-1.401,0.907-1.636c0.067,0.022,0.213,0.154,0.152,0.164c-0.185,0.372-0.101,0.697-0.454,0.818
			c0.079,0.131,0.018,0.227,0.151,0.327c0.379-0.347,0.571-1.021,1.21-1.309c0.172,0.048,0.209-0.307,0.453-0.163l0.152,0.327
			c0.106-0.168,0.346-0.195,0.605-0.164c0.899,1.868-1.185,3.016-1.815,4.742c-0.197,0.903-0.96,1.757-1.21,2.78
			C5.464,20.595,4.947,21.1,5.239,21.48c-0.006,0.273-0.1,0.497,0,0.654c0.138-0.087,0.203-0.409,0.454-0.327
			c1.949-2.583,4.148-5.085,6.352-7.358c0.36-0.543,0.904-0.918,1.361-1.471c2.856-2.375,6.568-5.908,10.435-8.176
			c2.868-1.52,5.736-3.101,8.771-4.251c0.722-0.057,1.413-0.3,2.117-0.164l0.152,0.164l-0.302,0.164
			c-3.015,0.127-5.56,2.039-8.318,3.27c-3.302,1.635-6.545,4.113-9.376,6.541c-0.423,0.567-1.114,0.777-1.512,1.308
			c-1,0.729-1.733,1.52-2.571,2.289l-0.605,0.655c-0.372,0.518,0.063,0.695,0.416,0.177c0.405-0.565,0.779-1.122,1.399-1.485
			c1.048-0.923,2.322-1.928,3.327-2.943c1.822-1.504,4.126-3.244,6.048-4.488c3.093-1.677,5.838-3.096,8.981-4.384
			c0.717-0.369,1.591-0.448,2.665-0.611c0.114-0.054,0.262,0.046,0.152,0.164c-0.374,0.226-0.736,0.379-1.059,0.49l0.151,0.163
			c0.525-0.008,1.041-0.448,1.664-0.327C36.02,2.103,34.924,1.627,35.183,2.349z M5.992,14.189l-0.299,0.259
			c-0.089,0.466-0.454,0.845-0.454,1.308c-0.635,1.086-0.842,1.872-1.344,2.943c-0.063,0.462-0.581,2.653-0.632,3.151
			c0.677-2.034,1.808-4.985,2.528-6.955L5.992,14.189z M10.539,17.303l0.455-1.188c-1.756,2.027-3.965,4.369-5.013,5.872
			l-0.405,0.801c0.208-0.147,0.922-1.01,0.945-1.192c0.516-0.446,0.777-0.824,1.124-1.407c0.258-0.113,0.506-0.255,0.609-0.58
			c0.728-0.224,0.865-1.246,1.553-1.579L10.539,17.303z M19.28,9.804c-0.071-0.055-0.103-0.022-0.159-0.172
			c-0.991,0.771-1.6,1.469-2.54,2.232c-0.906,0.619-1.581,1.485-2.382,2.061c-2.858,3.146-5.633,6.33-7.463,8.928v0.344
			c0.626-0.864,1.568-1.953,2.327-2.733c0.39-0.246,0.433-0.953,0.819-1.366c2.06-2.204,4.686-4.895,6.064-6.203
			c0.292-0.296,0.518-0.665,0.953-0.687C17.765,11.445,18.47,10.681,19.28,9.804L19.28,9.804z"/>
		<path class="st0" d="M12.498,19.844c-0.036,0.296-0.334,0.257-0.454,0.327c-0.876,0.488-1.904,1.346-2.87,1.802l0.303-0.492
			c1.063-0.584,1.698-1.21,2.718-1.801C12.293,19.619,12.47,19.753,12.498,19.844L12.498,19.844z"/>
		<path class="st0" d="M18.85,18.7c-2.355,1.435-4.773,2.897-7.259,4.252C8.905,24.936,6,26.872,3.273,29.001
			c-0.304,0.16-0.009,0.328,0.151,0.654c0.59-0.502,1.23-1.199,1.966-1.472l-0.303,0.491c0.041-0.013,0.099,0.085,0.151,0
			c0.888-0.668,1.887-1.357,2.873-1.963c2.832-2.214,5.857-4.18,9.074-5.559v-0.164l-0.243-0.08
			c-0.472,0.409-0.95,0.441-1.421,0.734c-0.323-0.161-0.651,0.424-0.967,0.29c1.33-0.69,2.48-1.598,3.714-2.172
			c0.291-0.306,1.107-0.337,0.883-0.898C19.152,18.676,19.002,18.673,18.85,18.7z M5.844,27.856c0.08-0.179,0.753-0.966,0.907-0.654
			C6.522,27.431,6.07,27.747,5.844,27.856z M6.703,27.113h-0.05l0.25-0.074L6.703,27.113z M6.903,27.039
			c0.479-0.682,2.085-1.858,2.499-1.869C8.491,26.073,7.228,26.853,6.903,27.039z M9.289,25.293l0.606-0.609L9.289,25.293z
			 M9.776,24.913c0.365-0.544,1.785-1.501,2.276-1.411C11.46,23.852,10.389,24.609,9.776,24.913z M12.952,22.951l0.454-0.327
			L12.952,22.951z"/>
	</g>
	<polygon class="st1" points="6.788,26.89 6.903,27.039 6.639,27.134 	"/>
	<g>
		<path class="st2" d="M28.656,21.335v5.885h-3.693V12.535h3.693v5.58h4.257v-5.58h3.693v14.684h-3.693v-5.885H28.656z"/>
		<polygon class="st2" points="74.083,15.8 78.045,15.8 78.045,12.535 66.374,12.535 66.374,15.8 70.337,15.8 70.337,27.226 
			74.083,27.226 		"/>
		<path class="st2" d="M111.045,21.335v5.885h-3.694V12.535h3.694v5.58h4.258v-5.58h3.692v14.684h-3.692v-5.885H111.045z"/>
		<path class="st2" d="M59.687,27.616c-4.339,0-6.07-3.751-6.07-3.751L56,22.188c0,0,1.44,2.406,3.687,2.382
			c1.698-0.02,2.386-0.994,2.386-1.925c0-1.667-2.418-1.604-2.418-1.604c-3.528-0.192-5.489-1.923-5.489-4.458
			c0-2.116,1.798-4.426,5.522-4.426c3.442,0,5.073,2.564,5.073,2.564l-2.441,1.793c0,0-1.101-1.347-2.633-1.342
			c-1.601,0.006-2.124,0.897-2.124,1.411c0,1.443,2.156,1.443,2.156,1.443c3.136,0.128,5.849,1.507,5.849,4.618
			C65.568,25.436,63.412,27.616,59.687,27.616z"/>
		<path class="st2" d="M99.69,24.552c-1.515,0-2.355-1.193-2.355-2.322v-4.675c0-1.129,0.84-2.322,2.355-2.322
			c2.213,0,2.86,2.251,2.86,2.251l2.732-1.492c0,0-1.154-3.818-5.592-3.822c-3.484-0.003-5.805,2.515-5.805,5.385v4.675
			c0,2.87,2.321,5.39,5.805,5.387c4.438-0.004,5.592-3.823,5.592-3.823l-2.732-1.492C102.55,22.301,101.903,24.552,99.69,24.552z"/>
		<path class="st2" d="M47.972,22.105c0,1.155-0.858,2.315-2.409,2.315c-1.551,0-2.408-1.16-2.408-2.315v-9.569h-3.531v9.569
			c0,2.937,2.375,5.51,5.939,5.51c3.564,0,5.939-2.574,5.939-5.51v-9.569h-3.53V22.105z"/>
	</g>
	<path class="st2" d="M80.78,12.565h10.427v2.999l-6.719,0.009v2.635h6.475v3.112h-6.478l0.003,2.644h6.714v3.216H80.78V12.565z"/>
</g>
</svg>
